<?xml version="1.0" standalone="no"?>
<!DOCTYPE svg PUBLIC "-//W3C//DTD SVG 20010904//EN"
 "http://www.w3.org/TR/2001/REC-SVG-20010904/DTD/svg10.dtd">
<svg version="1.0" xmlns="http://www.w3.org/2000/svg"
 width="416.000000pt" height="416.000000pt" viewBox="0 0 416.000000 416.000000"
 preserveAspectRatio="xMidYMid meet">
<metadata>
Created by potrace 1.16, written by Peter Selinger 2001-2019
</metadata>
<g transform="translate(0.000000,416.000000) scale(0.100000,-0.100000)"
fill="#004a8e" stroke="none">
<path d="M1656 3029 c-79 -27 -152 -75 -205 -135 -49 -55 -98 -150 -107 -206
l-7 -38 -188 0 c-176 0 -190 -1 -209 -20 -20 -20 -20 -33 -20 -600 0 -567 0
-580 20 -600 18 -18 33 -20 179 -20 l158 0 14 -47 c17 -61 87 -133 145 -151
58 -17 122 -15 169 7 54 24 112 91 127 146 l12 45 362 0 361 0 14 -47 c17 -61
87 -133 145 -151 58 -17 122 -15 169 7 54 24 112 91 127 146 l12 45 133 0
c184 0 173 -14 173 233 l0 192 -151 251 c-83 138 -161 257 -173 265 -16 11
-76 15 -268 17 l-248 3 0 120 c0 141 -9 159 -84 159 l-44 0 -21 68 c-46 152
-158 266 -310 312 -85 27 -206 26 -285 -1z m327 -67 c86 -43 156 -113 199
-199 32 -65 33 -72 33 -183 0 -106 -2 -120 -28 -172 -119 -242 -415 -322 -629
-168 -239 171 -234 524 9 692 77 52 136 68 249 65 91 -2 107 -6 167 -35z
m-653 -394 c0 -30 13 -96 26 -140 5 -17 -6 -18 -126 -18 -111 0 -132 -2 -137
-16 -10 -27 18 -34 157 -35 l135 0 45 -62 c25 -33 69 -77 98 -96 l53 -36 -187
-3 c-191 -3 -227 -9 -203 -38 17 -21 642 -20 722 1 202 53 357 237 357 426 l0
49 40 0 40 0 0 -470 0 -470 -690 0 -690 0 0 470 0 470 180 0 180 0 0 -32z
m1562 -260 c8 -7 79 -119 157 -250 l141 -236 0 -181 0 -181 -129 0 -129 0 -7
29 c-29 131 -194 210 -320 152 -54 -24 -112 -91 -125 -144 -11 -41 -13 -43
-46 -39 l-34 4 0 422 c0 233 3 426 7 429 3 4 110 7 238 7 170 0 235 -3 247
-12z m-1561 -733 c-16 -19 -36 -53 -42 -75 l-12 -40 -154 0 -153 0 0 75 0 75
196 0 196 0 -31 -35z m1019 -40 l0 -75 -304 0 -303 0 -7 33 c-3 17 -20 51 -37
75 l-30 42 340 0 341 0 0 -75z m-792 -51 c15 -11 22 -25 22 -50 0 -66 -69 -97
-117 -52 -66 61 20 155 95 102z m1192 -4 c65 -65 -30 -161 -97 -98 -46 43 -16
118 47 118 17 0 39 -9 50 -20z"/>
<path d="M1863 2698 l-123 -123 -58 58 c-32 31 -64 57 -73 57 -16 0 -109 -90
-109 -105 0 -6 54 -64 120 -130 l120 -120 180 180 c99 99 180 187 180 195 0
17 -89 110 -105 110 -6 0 -65 -55 -132 -122z m29 -140 l-152 -153 -87 87 -87
87 24 26 24 25 56 -55 c30 -30 62 -55 70 -55 9 0 69 54 134 119 l119 119 26
-24 26 -24 -153 -152z"/>
<path d="M1291 1901 c-8 -5 -11 -16 -8 -25 6 -14 49 -16 412 -16 l406 0 -3 23
-3 22 -395 2 c-219 2 -401 -1 -409 -6z"/>
<path d="M2487 2243 c-11 -11 -8 -333 3 -334 6 -1 17 -1 25 -1 419 0 525 3
525 16 0 18 -175 307 -192 318 -16 9 -352 11 -361 1z m408 -160 c39 -64 72
-120 73 -125 2 -4 -96 -8 -217 -8 l-221 0 0 125 0 125 148 0 147 -1 70 -116z"/>
</g>
</svg>
