<svg height="512" viewBox="0 0 96 96" width="512" xmlns="http://www.w3.org/2000/svg" xmlns:xlink="http://www.w3.org/1999/xlink"><linearGradient id="New_Gradient_Swatch_1" gradientUnits="userSpaceOnUse" x1="32.586" x2="63.414" y1="75.414" y2="44.586"><stop offset="0" stop-color="#34cdfa"/><stop offset="1" stop-color="#e8d9f1"/></linearGradient><g id="_10-firstaid" data-name="10-firstaid"><g id="Flat"><path d="m68 28h-8v-12h-24v12h-8v-12a8.009 8.009 0 0 1 8-8h24a8.009 8.009 0 0 1 8 8z" fill="#34cdfa"/><rect fill="#e6f9fe" height="72" rx="8" width="96" y="24"/><path d="m12 80v-56h-4a8.009 8.009 0 0 0 -8 8v56a8.009 8.009 0 0 0 8 8h80a8.009 8.009 0 0 0 8-8h-76a8.009 8.009 0 0 1 -8-8z" fill="#ccf2fe"/><path d="m0 60v28a8.009 8.009 0 0 0 8 8h80a8.009 8.009 0 0 0 8-8v-28z" fill="#99e6fd"/><path d="m12 80v-20h-12v28a8.009 8.009 0 0 0 8 8h80a8.009 8.009 0 0 0 8-8h-76a8.009 8.009 0 0 1 -8-8z" fill="#67d9fb"/><path d="m68 50h-10v-10a2 2 0 0 0 -2-2h-16a2 2 0 0 0 -2 2v10h-10a2 2 0 0 0 -2 2v16a2 2 0 0 0 2 2h10v10a2 2 0 0 0 2 2h16a2 2 0 0 0 2-2v-10h10a2 2 0 0 0 2-2v-16a2 2 0 0 0 -2-2z" fill="url(#New_Gradient_Swatch_1)"/></g></g></svg>